<svg xmlns="http://www.w3.org/2000/svg" viewBox="0 0 1024 576" width="1024" height="576">
  <defs>
    <linearGradient id="bgGrad" x1="0%" y1="0%" x2="100%" y2="100%">
      <stop offset="0%" stop-color="#090d14" />
      <stop offset="100%" stop-color="#040609" />
    </linearGradient>
    <linearGradient id="coreGlow" x1="0%" y1="0%" x2="100%" y2="100%">
      <stop offset="0%" stop-color="#76b900" stop-opacity="0.8" />
      <stop offset="100%" stop-color="#a855f7" stop-opacity="0.2" />
    </linearGradient>
    <filter id="glow" x="-20%" y="-20%" width="140%" height="140%">
      <feGaussianBlur stdDeviation="12" result="blur" />
      <feComposite in="SourceGraphic" in2="blur" operator="over" />
    </filter>
  </defs>
  <rect width="1024" height="576" fill="url(#bgGrad)" />
  <g opacity="0.15" stroke="#76b900" stroke-width="1">
    <line x1="0" y1="0" x2="1024" y2="0" /><line x1="0" y1="24" x2="1024" y2="24" /><line x1="0" y1="48" x2="1024" y2="48" /><line x1="0" y1="72" x2="1024" y2="72" /><line x1="0" y1="96" x2="1024" y2="96" /><line x1="0" y1="120" x2="1024" y2="120" /><line x1="0" y1="144" x2="1024" y2="144" /><line x1="0" y1="168" x2="1024" y2="168" /><line x1="0" y1="192" x2="1024" y2="192" /><line x1="0" y1="216" x2="1024" y2="216" /><line x1="0" y1="240" x2="1024" y2="240" /><line x1="0" y1="264" x2="1024" y2="264" /><line x1="0" y1="288" x2="1024" y2="288" /><line x1="0" y1="312" x2="1024" y2="312" /><line x1="0" y1="336" x2="1024" y2="336" /><line x1="0" y1="360" x2="1024" y2="360" /><line x1="0" y1="384" x2="1024" y2="384" /><line x1="0" y1="408" x2="1024" y2="408" /><line x1="0" y1="432" x2="1024" y2="432" /><line x1="0" y1="456" x2="1024" y2="456" /><line x1="0" y1="480" x2="1024" y2="480" /><line x1="0" y1="504" x2="1024" y2="504" /><line x1="0" y1="528" x2="1024" y2="528" /><line x1="0" y1="552" x2="1024" y2="552" />
    <line x1="0" y1="0" x2="0" y2="576" /><line x1="24" y1="0" x2="24" y2="576" /><line x1="48" y1="0" x2="48" y2="576" /><line x1="72" y1="0" x2="72" y2="576" /><line x1="96" y1="0" x2="96" y2="576" /><line x1="120" y1="0" x2="120" y2="576" /><line x1="144" y1="0" x2="144" y2="576" /><line x1="168" y1="0" x2="168" y2="576" /><line x1="192" y1="0" x2="192" y2="576" /><line x1="216" y1="0" x2="216" y2="576" /><line x1="240" y1="0" x2="240" y2="576" /><line x1="264" y1="0" x2="264" y2="576" /><line x1="288" y1="0" x2="288" y2="576" /><line x1="312" y1="0" x2="312" y2="576" /><line x1="336" y1="0" x2="336" y2="576" /><line x1="360" y1="0" x2="360" y2="576" /><line x1="384" y1="0" x2="384" y2="576" /><line x1="408" y1="0" x2="408" y2="576" /><line x1="432" y1="0" x2="432" y2="576" /><line x1="456" y1="0" x2="456" y2="576" /><line x1="480" y1="0" x2="480" y2="576" /><line x1="504" y1="0" x2="504" y2="576" /><line x1="528" y1="0" x2="528" y2="576" /><line x1="552" y1="0" x2="552" y2="576" /><line x1="576" y1="0" x2="576" y2="576" /><line x1="600" y1="0" x2="600" y2="576" /><line x1="624" y1="0" x2="624" y2="576" /><line x1="648" y1="0" x2="648" y2="576" /><line x1="672" y1="0" x2="672" y2="576" /><line x1="696" y1="0" x2="696" y2="576" /><line x1="720" y1="0" x2="720" y2="576" /><line x1="744" y1="0" x2="744" y2="576" /><line x1="768" y1="0" x2="768" y2="576" /><line x1="792" y1="0" x2="792" y2="576" /><line x1="816" y1="0" x2="816" y2="576" /><line x1="840" y1="0" x2="840" y2="576" /><line x1="864" y1="0" x2="864" y2="576" /><line x1="888" y1="0" x2="888" y2="576" /><line x1="912" y1="0" x2="912" y2="576" /><line x1="936" y1="0" x2="936" y2="576" /><line x1="960" y1="0" x2="960" y2="576" /><line x1="984" y1="0" x2="984" y2="576" />
  </g>
  <g opacity="0.4" stroke="#38bdf8" stroke-width="2" fill="none">
    <path d="M 100 100 L 250 100 L 320 170 L 500 170" />
    <path d="M 924 476 L 774 476 L 704 406 L 524 406" />
    <path d="M 800 120 L 700 120 L 640 180 L 400 180" />
    <circle cx="320" cy="170" r="6" fill="#38bdf8" />
    <circle cx="704" cy="406" r="6" fill="#38bdf8" />
    <circle cx="640" cy="180" r="6" fill="#38bdf8" />
  </g>
  <g transform="translate(512, 288)" filter="url(#glow)">
    
      <rect x="-140" y="-140" width="280" height="280" rx="20" fill="#0b0d13" stroke="#76b900" stroke-width="4" opacity="0.9" />
      <rect x="-100" y="-100" width="200" height="200" rx="12" fill="url(#coreGlow)" stroke="#a855f7" stroke-width="2" />
      <circle cx="0" cy="0" r="45" fill="none" stroke="#76b900" stroke-width="4" />
      <path d="M -30 0 L 30 0 M 0 -30 L 0 30" stroke="#76b900" stroke-width="3" />
    
  </g>
  <rect x="0" y="360" width="1024" height="216" fill="url(#bgGrad)" opacity="0.85" />
  <rect x="48" y="440" width="140" height="28" rx="6" fill="#76b900" opacity="0.2" stroke="#76b900" stroke-width="1.5" />
  <text x="58" y="459" font-family="monospace" font-size="12" font-weight="bold" fill="#76b900" letter-spacing="2">GPU NEWS</text>
  <text x="48" y="505" font-family="sans-serif" font-size="22" font-weight="900" fill="#ffffff" letter-spacing="-0.5">NVIDIA's Twin Frontiers: RTX 5090 Hits 200 Tokens/s as ...</text>
</svg>